<?xml version="1.0" encoding="UTF-8"?>
<!DOCTYPE svg PUBLIC "-//W3C//DTD SVG 1.1//EN" "http://www.w3.org/Graphics/SVG/1.1/DTD/svg11.dtd">
<svg version="1.2" width="12.72mm" height="12.72mm" viewBox="7096 5953 1272 1272" preserveAspectRatio="xMidYMid" fill-rule="evenodd" stroke-width="28.222" stroke-linejoin="round" xmlns="http://www.w3.org/2000/svg" xmlns:ooo="http://xml.openoffice.org/svg/export" xmlns:xlink="http://www.w3.org/1999/xlink" xmlns:presentation="http://sun.com/xmlns/staroffice/presentation" xmlns:smil="http://www.w3.org/2001/SMIL20/" xmlns:anim="urn:oasis:names:tc:opendocument:xmlns:animation:1.0" xml:space="preserve">
 <defs class="ClipPathGroup">
  <clipPath id="presentation_clip_path" clipPathUnits="userSpaceOnUse">
   <rect x="7096" y="5953" width="1272" height="1272"/>
  </clipPath>
 </defs>
 <defs class="TextShapeIndex">
  <g ooo:slide="id1" ooo:id-list="id3"/>
 </defs>
 <defs class="EmbeddedBulletChars">
  <g id="bullet-char-template(57356)" transform="scale(0.00048828125,-0.00048828125)">
   <path d="M 580,1141 L 1163,571 580,0 -4,571 580,1141 Z"/>
  </g>
  <g id="bullet-char-template(57354)" transform="scale(0.00048828125,-0.00048828125)">
   <path d="M 8,1128 L 1137,1128 1137,0 8,0 8,1128 Z"/>
  </g>
  <g id="bullet-char-template(10146)" transform="scale(0.00048828125,-0.00048828125)">
   <path d="M 174,0 L 602,739 174,1481 1456,739 174,0 Z M 1358,739 L 309,1346 659,739 1358,739 Z"/>
  </g>
  <g id="bullet-char-template(10132)" transform="scale(0.00048828125,-0.00048828125)">
   <path d="M 2015,739 L 1276,0 717,0 1260,543 174,543 174,936 1260,936 717,1481 1274,1481 2015,739 Z"/>
  </g>
  <g id="bullet-char-template(10007)" transform="scale(0.00048828125,-0.00048828125)">
   <path d="M 0,-2 C -7,14 -16,27 -25,37 L 356,567 C 262,823 215,952 215,954 215,979 228,992 255,992 264,992 276,990 289,987 310,991 331,999 354,1012 L 381,999 492,748 772,1049 836,1024 860,1049 C 881,1039 901,1025 922,1006 886,937 835,863 770,784 769,783 710,716 594,584 L 774,223 C 774,196 753,168 711,139 L 727,119 C 717,90 699,76 672,76 641,76 570,178 457,381 L 164,-76 C 142,-110 111,-127 72,-127 30,-127 9,-110 8,-76 1,-67 -2,-52 -2,-32 -2,-23 -1,-13 0,-2 Z"/>
  </g>
  <g id="bullet-char-template(10004)" transform="scale(0.00048828125,-0.00048828125)">
   <path d="M 285,-33 C 182,-33 111,30 74,156 52,228 41,333 41,471 41,549 55,616 82,672 116,743 169,778 240,778 293,778 328,747 346,684 L 369,508 C 377,444 397,411 428,410 L 1163,1116 C 1174,1127 1196,1133 1229,1133 1271,1133 1292,1118 1292,1087 L 1292,965 C 1292,929 1282,901 1262,881 L 442,47 C 390,-6 338,-33 285,-33 Z"/>
  </g>
  <g id="bullet-char-template(9679)" transform="scale(0.00048828125,-0.00048828125)">
   <path d="M 813,0 C 632,0 489,54 383,161 276,268 223,411 223,592 223,773 276,916 383,1023 489,1130 632,1184 813,1184 992,1184 1136,1130 1245,1023 1353,916 1407,772 1407,592 1407,412 1353,268 1245,161 1136,54 992,0 813,0 Z"/>
  </g>
  <g id="bullet-char-template(8226)" transform="scale(0.00048828125,-0.00048828125)">
   <path d="M 346,457 C 273,457 209,483 155,535 101,586 74,649 74,723 74,796 101,859 155,911 209,963 273,989 346,989 419,989 480,963 531,910 582,859 608,796 608,723 608,648 583,586 532,535 482,483 420,457 346,457 Z"/>
  </g>
  <g id="bullet-char-template(8211)" transform="scale(0.00048828125,-0.00048828125)">
   <path d="M -4,459 L 1135,459 1135,606 -4,606 -4,459 Z"/>
  </g>
 </defs>
 <defs class="TextEmbeddedBitmaps"/>
 <g class="SlideGroup">
  <g>
   <g id="id1" class="Slide" clip-path="url(#presentation_clip_path)">
    <g class="Page">
     <g class="com.sun.star.drawing.CustomShape">
      <g id="id3">
       <rect class="BoundingBox" stroke="none" fill="none" x="7095" y="5952" width="1274" height="1274"/>
       <g>
        <defs>
         <linearGradient id="gradient1" x1="7297" y1="5836" x2="8165" y2="7340" gradientUnits="userSpaceOnUse">
          <stop offset="0" style="stop-color:rgb(153,255,102)"/>
          <stop offset="1" style="stop-color:rgb(0,204,0)"/>
         </linearGradient>
        </defs>
        <path style="fill:url(#gradient1)" d="M 7731,5953 L 7797,5956 7862,5966 7923,5981 7982,6002 8038,6028 8090,6059 8139,6095 8184,6136 8224,6180 8260,6229 8291,6281 8317,6337 8338,6396 8353,6457 8363,6522 8366,6588 8363,6654 8353,6719 8338,6780 8317,6839 8291,6895 8260,6947 8224,6996 8184,7041 8139,7081 8090,7117 8038,7148 7982,7174 7923,7195 7862,7210 7797,7220 7731,7223 7665,7220 7600,7210 7539,7195 7480,7174 7424,7148 7372,7117 7323,7081 7279,7041 7238,6996 7202,6947 7171,6895 7145,6839 7124,6780 7109,6719 7099,6654 7096,6588 7099,6522 7109,6457 7124,6396 7145,6337 7171,6281 7202,6229 7238,6180 7279,6136 7323,6095 7372,6059 7424,6028 7480,6002 7539,5981 7600,5966 7665,5956 7731,5953 Z"/>
       </g>
       <path fill="none" stroke="rgb(0,0,0)" d="M 7731,5953 C 8091,5953 8366,6228 8366,6588 8366,6948 8091,7223 7731,7223 7371,7223 7096,6948 7096,6588 7096,6228 7371,5953 7731,5953 Z"/>
       <path fill="none" stroke="rgb(0,0,0)" d="M 7096,5953 L 7096,5953 Z"/>
       <path fill="none" stroke="rgb(0,0,0)" d="M 8367,7224 L 8367,7224 Z"/>
      </g>
     </g>
    </g>
   </g>
  </g>
 </g>
</svg>